<svg viewBox="0 0 21 20" xmlns="http://www.w3.org/2000/svg"><path fill-rule="evenodd" clip-rule="evenodd" d="M1.312 20h18.376A1.31 1.31 0 0 0 21 18.694V6.539H0v12.155c0 .72.588 1.305 1.312 1.306M9.759 7.783h1.482a.57.57 0 0 1 .569.568v1.477a.567.567 0 0 1-.569.566H9.759a.567.567 0 0 1-.569-.566V8.35a.57.57 0 0 1 .57-.568m3.861 0h1.482a.57.57 0 0 1 .57.568v1.477a.567.567 0 0 1-.57.566H13.62a.567.567 0 0 1-.557-.566V8.35a.57.57 0 0 1 .57-.568zm-7.722 0H7.38a.57.57 0 0 1 .568.568v1.477a.567.567 0 0 1-.569.566h-1.48a.567.567 0 0 1-.57-.566V8.35a.57.57 0 0 1 .57-.568m3.86 4.073h1.483c.314 0 .569.254.569.567V13.9a.57.57 0 0 1-.57.566H9.76a.57.57 0 0 1-.569-.567v-1.477c0-.313.255-.567.569-.567m3.862 0h1.482c.314 0 .569.254.569.567V13.9a.57.57 0 0 1-.569.566H13.62a.57.57 0 0 1-.557-.567v-1.477c0-.309.248-.56.557-.567m-7.723 0H7.38a.57.57 0 0 1 .57.567V13.9a.57.57 0 0 1-.57.566H5.897a.57.57 0 0 1-.569-.567v-1.477c0-.313.255-.567.57-.567m11.594-4.073h1.482a.57.57 0 0 1 .568.568v1.477a.57.57 0 0 1-.569.566h-1.481a.57.57 0 0 1-.571-.566V8.35a.57.57 0 0 1 .57-.568m0 4.073h1.482a.57.57 0 0 1 .568.567V13.9a.57.57 0 0 1-.569.566h-1.481a.57.57 0 0 1-.571-.567v-1.477a.57.57 0 0 1 .57-.567m-15.455 0h1.473a.57.57 0 0 1 .57.567V13.9a.57.57 0 0 1-.57.566H2.036a.57.57 0 0 1-.569-.567v-1.477a.57.57 0 0 1 .569-.567m7.723 4.073h1.482a.57.57 0 0 1 .569.569v1.476a.57.57 0 0 1-.57.566H9.76a.57.57 0 0 1-.569-.566v-1.476c0-.313.255-.567.569-.567zm7.723 0h1.482a.57.57 0 0 1 .569.569v1.476a.57.57 0 0 1-.57.566h-1.472a.57.57 0 0 1-.57-.566v-1.476a.57.57 0 0 1 .57-.568zm-3.862 0h1.482a.57.57 0 0 1 .57.569v1.476a.57.57 0 0 1-.57.566H13.62a.57.57 0 0 1-.557-.568v-1.474c0-.313.255-.567.57-.567zm-7.722 0H7.38a.57.57 0 0 1 .568.569v1.476a.57.57 0 0 1-.568.566H5.898a.57.57 0 0 1-.57-.566v-1.476a.57.57 0 0 1 .57-.567zm-3.862 0H3.51a.57.57 0 0 1 .58.569v1.476a.566.566 0 0 1-.58.564H2.036a.567.567 0 0 1-.569-.566v-1.474c0-.313.255-.567.57-.567zM21 6.105V2.712a1.31 1.31 0 0 0-1.312-1.3H17.52V2.91c.37.466.442 1.102.181 1.638a1.557 1.557 0 0 1-2.802 0 1.55 1.55 0 0 1 .18-1.638V1.412H5.922V2.91c.37.466.442 1.102.181 1.638a1.558 1.558 0 0 1-2.802 0 1.55 1.55 0 0 1 .18-1.638V1.412H1.313A1.31 1.31 0 0 0 0 2.712v3.393zM5.485 3.5c0 .43-.35.78-.783.78a.78.78 0 0 1-.782-.78V.778A.788.788 0 0 1 5.006.06a.78.78 0 0 1 .484.72V3.5zM15.505.78a.781.781 0 0 1 1.336-.548.78.78 0 0 1 .233.553V3.5a.78.78 0 0 1-.233.55.78.78 0 0 1-.553.232.786.786 0 0 1-.773-.782z"/></svg>