<svg viewBox="0 0 27 21" xmlns="http://www.w3.org/2000/svg"><path d="M24.81 0H12.405c-1.204 0-2.19.985-2.19 2.19v7.66c0 1.204.986 2.19 2.19 2.19h6.714c.437 0 .912.182 1.24.474l2.59 2.408c.147.146.402.037.402-.182v-2.518c0-.146.11-.219.219-.219h1.24c1.205 0 2.19-.985 2.19-2.19V2.154C27 .985 26.015 0 24.81 0"/><path d="M2.19 5.838C.984 5.838 0 6.823 0 8.027v7.662c0 1.204.985 2.19 2.19 2.19h1.203a.21.21 0 0 1 .22.218v2.518c0 .219.255.328.4.182l2.591-2.408c.328-.328.766-.474 1.24-.474h6.75c1.205 0 2.19-.985 2.19-2.19v-2.553h-4.379a3.293 3.293 0 0 1-3.283-3.284V5.874z"/></svg>