<svg viewBox="0 0 20 18" xmlns="http://www.w3.org/2000/svg"><path d="M9.61 18C4.31 18 0 13.963 0 9s4.31-9 9.61-9 9.61 4.037 9.61 9-4.311 9-9.61 9m0-16.714C5.066 1.286 1.373 4.744 1.373 9s3.693 7.714 8.237 7.714S17.847 13.256 17.847 9 14.154 1.286 9.61 1.286m0 14.143c-2.362 0-5.087-1.588-5.485-5.072a.61.61 0 0 1 .172-.496.7.7 0 0 1 .508-.212h9.61a.7.7 0 0 1 .507.212.61.61 0 0 1 .172.495c-.398 3.485-3.123 5.073-5.484 5.073m-3.995-4.5c.549 2.211 2.333 3.214 3.995 3.214 1.66 0 3.446-1.003 3.995-3.214zM15.1 7.714c0-1.369-1.037-2.089-2.06-2.089-1.022 0-2.059.72-2.059 2.09 0 .353.31.642.687.642s.686-.29.686-.643c0-.591.357-.803.687-.803s.686.212.686.803c0 .354.309.643.687.643.377 0 .686-.29.686-.643m-6.864 0c0-1.369-1.037-2.089-2.06-2.089-1.022 0-2.059.72-2.059 2.09 0 .353.31.642.687.642s.686-.29.686-.643c0-.591.357-.803.687-.803s.686.212.686.803c0 .354.309.643.686.643s.687-.29.687-.643"/></svg>