<svg viewBox="0 0 81 82" xmlns="http://www.w3.org/2000/svg"><path d="M0 78.2V20.4L5.98 2.325A3.38 3.38 0 0 1 9.184 0H27v10.2c0 1.878 1.511 3.4 3.375 3.4h20.25c1.864 0 3.375-1.522 3.375-3.4V0h17.817c1.453 0 2.743.936 3.202 2.325L81 20.4v23.842V37.4v40.8c0 1.878-1.511 3.4-3.375 3.4H3.375C1.511 81.6 0 80.078 0 78.2m3.558-57.8H6.75v-9.648zm6.567 0h13.5V34c0 1.878 1.511 3.4 3.375 3.4h27c1.864 0 3.375-1.522 3.375-3.4V20.4h13.5v-17h-13.5v6.8c0 3.756-3.022 6.8-6.75 6.8h-20.25c-3.728 0-6.75-3.044-6.75-6.8V3.4h-13.5zm64.125 0h3.192l-3.192-9.648zm-54 3.4H3.375v54.4h74.25V23.8H60.75V34c0 3.755-3.022 6.8-6.75 6.8H27c-3.728 0-6.75-3.044-6.75-6.8zM35.438 68h13.5c.931 0 1.687.761 1.687 1.7s-.755 1.7-1.687 1.7h-13.5a1.694 1.694 0 0 1-1.688-1.7c0-.939.755-1.7 1.688-1.7m0-6.8h20.25c.931 0 1.687.761 1.687 1.7s-.755 1.7-1.687 1.7h-20.25a1.694 1.694 0 0 1-1.688-1.7c0-.939.755-1.7 1.688-1.7m-23.626 0h16.876c.931 0 1.687.761 1.687 1.7v6.8c0 .939-.756 1.7-1.687 1.7H11.813a1.694 1.694 0 0 1-1.688-1.7v-6.8c0-.939.755-1.7 1.688-1.7m1.688 3.4V68H27v-3.4z"/></svg>