<svg viewBox="0 0 15 15" xmlns="http://www.w3.org/2000/svg"><path d="M7.5 0C3.36 0 0 3.36 0 7.5S3.36 15 7.5 15 15 11.64 15 7.5 11.64 0 7.5 0m1.29 11.37a.4.4 0 0 1-.12.105c-.6.435-1.32.66-2.07.675-.675 0-1.05-.48-.9-1.14.195-.795.39-1.575.57-2.37a.55.55 0 0 0-.015-.435A.47.47 0 0 0 6 8.01a.8.8 0 0 0-.18-.03c-.075-.015-.18-.03-.225-.105l-.015-.03a.26.26 0 0 1 .06-.345h.015l.135-.09.195-.12c.12-.06.24-.12.375-.165a3.6 3.6 0 0 1 .81-.225c.165-.03.33-.045.495-.06q.202 0 .405.045c.48.12.735.555.6 1.08-.18.795-.39 1.59-.585 2.385-.09.375 0 .54.375.645l.18.045c.225.045.27.165.15.33m-.645-5.955a1.287 1.287 0 0 1-1.275-1.29c0-.705.585-1.275 1.29-1.275s1.275.585 1.275 1.29v.015a1.294 1.294 0 0 1-1.29 1.26"/></svg>