<svg viewBox="0 0 27 37" xmlns="http://www.w3.org/2000/svg"><path d="M13.5 0a13.64 13.64 0 0 0-9.542 3.888A13.16 13.16 0 0 0 0 13.26C0 23.68 12.428 31.57 12.962 31.9a1 1 0 0 0 1.068 0C14.563 31.578 27 23.895 27 13.256a13.16 13.16 0 0 0-3.96-9.37A13.64 13.64 0 0 0 13.5 0m0 20.094a6.95 6.95 0 0 1-4.856-1.989 6.7 6.7 0 0 1-2.01-4.776c.374-8.948 13.345-8.944 13.732 0 0 1.79-.723 3.508-2.01 4.776a6.95 6.95 0 0 1-4.856 1.99"/><path d="M16.126 35.017h-5.252a1.02 1.02 0 0 0-.672.312.984.984 0 0 0 0 1.359c.175.184.416.295.672.312h5.252a1.02 1.02 0 0 0 .672-.312.984.984 0 0 0 0-1.359 1.02 1.02 0 0 0-.672-.312"/></svg>