<svg viewBox="0 0 27 27" xmlns="http://www.w3.org/2000/svg"><path d="M6.765 9.755c.86.817 1.692 1.5 2.389 2.302.745.86.653 2.118-.154 2.936a285 285 0 0 1-5.145 5.076c-.97.931-2.353.88-3.233-.046-.881-.925-.82-2.279.143-3.238a511 511 0 0 1 4.367-4.34c.771-.76 1.555-1.491 1.633-2.69"/><path d="M16.995 6.79c-.702.755-1.353 1.554-2.106 2.24a2.22 2.22 0 0 1-3.047-.081 289 289 0 0 1-5.16-5.144A2.207 2.207 0 0 1 6.669.722C7.581-.2 8.94-.259 9.906.665c1.453 1.38 2.864 2.805 4.286 4.218 1.313 1.302 1.31 1.306 2.803 1.906"/><path d="M9.893 19.943c.728-.768 1.403-1.576 2.18-2.269a2.183 2.183 0 0 1 2.94.06 185 185 0 0 1 5.307 5.282c.858.893.736 2.248-.14 3.07-.936.884-2.294.861-3.244-.073a799 799 0 0 1-4.37-4.327c-1.226-1.217-1.225-1.218-2.673-1.743"/><path d="M20.12 17.164c-.923-.98-1.773-1.77-2.48-2.671-.616-.786-.46-1.994.257-2.717a323 323 0 0 1 5.239-5.17c.896-.86 2.272-.786 3.14.084a2.2 2.2 0 0 1 .65 1.568 2.2 2.2 0 0 1-.65 1.567c-1.352 1.393-2.746 2.744-4.119 4.115-.873.877-1.9 1.65-2.036 3.224"/><path d="M12.74 23.171c-.981 1.025-1.893 2.064-2.898 3.001-.898.837-2.3.7-3.13-.186-.81-.866-.802-2.178.048-3.083q.616-.66 1.278-1.27c.936-.87 2.272-.877 3.194-.008.536.503 1.03 1.047 1.508 1.546"/><path d="M23.298 13.848c1.165 1.178 2.2 2.157 3.15 3.21.701.777.606 2.04-.095 2.825-.722.804-1.994 1.072-2.842.43a10.7 10.7 0 0 1-1.987-1.95c-.64-.82-.476-1.964.233-2.77.48-.553.97-1.101 1.54-1.745"/><path d="M3.458 12.814c-1.003-1.04-1.96-2.001-2.879-3a2.214 2.214 0 0 1-.023-2.94c.777-.879 2.103-1.088 3.011-.37.66.53 1.262 1.128 1.795 1.785.626.765.568 1.89-.047 2.673q-.363.436-.779.824c-.312.313-.639.611-1.078 1.028"/><path d="M14.175 3.59c1-1.049 1.914-2.09 2.92-3.034.877-.823 2.241-.697 3.074.17a2.22 2.22 0 0 1 .06 3.043q-.688.772-1.475 1.444a2.245 2.245 0 0 1-2.949-.011c-.593-.508-1.113-1.095-1.63-1.613"/></svg>