<svg viewBox="0 0 31 19" xmlns="http://www.w3.org/2000/svg"><path d="M22.571 17.813c-.384.681-1.175 1.072-2.008 1.072H9.79c-.845 0-1.64-.39-2.02-1.073-.172-.309-.388-.855-.41-1.357 0-.936.182-1.849.536-2.693.867-2.054 2.738-3.675 4.93-4.097 2.396-.456 5.146-.365 7.211 1.095a6.99 6.99 0 0 1 2.956 5.683c-.023.513-.247 1.057-.423 1.37"/><path d="M30.353 16.694a2.267 2.267 0 0 1-2.27 2.26h-4.976c.32-.32.582-.708.753-1.141.183-.411.274-.879.274-1.358a8.03 8.03 0 0 0-1.221-4.268 6.5 6.5 0 0 0-.799-1.061c.297-.057 2.59-.08 2.59-.08a5.654 5.654 0 0 1 5.65 5.648"/><path d="M7.429 12.187a8.1 8.1 0 0 0-1.21 4.268c0 .48.091.947.274 1.358.171.433.433.821.753 1.14H2.271A2.267 2.267 0 0 1 0 16.696a5.654 5.654 0 0 1 5.649-5.649s2.282.023 2.578.08a6.4 6.4 0 0 0-.798 1.061"/><path d="M27.604 7.006a3.72 3.72 0 0 1-3.709 3.72 3.72 3.72 0 0 1-3.709-3.72 3.716 3.716 0 0 1 3.709-3.708 3.716 3.716 0 0 1 3.709 3.708"/><path d="M10.225 7.006a3.72 3.72 0 0 1-3.72 3.72 3.72 3.72 0 0 1-3.71-3.72 3.716 3.716 0 0 1 3.71-3.708 3.72 3.72 0 0 1 3.72 3.708"/><path d="M19.638 4.427a4.428 4.428 0 1 1-8.856 0 4.428 4.428 0 0 1 8.856 0"/></svg>