<svg viewBox="0 0 122 125" xmlns="http://www.w3.org/2000/svg"><path d="M64.37 116.926h10.476v7.441h-28.39v-7.441h10.476V70.307h-34.16v-7.44h75.91v7.44H64.37zm49.645-78.811V77.14h-22.62c-5.921 0-10.628 4.859-10.628 10.63v36.14h7.44V96.426h25.808v27.637h7.44V38.115zM30.06 77.14H7.44V38.115H0v85.796h7.44V96.426h25.808v27.637h7.44V87.77c0-5.922-4.707-10.63-10.628-10.63m3.188-49.656C33.248 12.3 45.546 0 60.728 0c15.181 0 27.478 12.3 27.478 27.485S75.91 54.82 60.727 54.82s-27.479-12.3-27.479-27.334m15.334 2.582 7.135 7.137c.76.759 1.67 1.063 2.581 1.063s1.822-.304 2.581-1.063L75.15 22.93l-5.314-5.315-11.538 11.54-4.554-4.555z"/></svg>