<svg viewBox="0 0 20 24" xmlns="http://www.w3.org/2000/svg"><path d="M10.963 4.034a9.96 9.96 0 0 1 5.221 2.098l.626-.626-.47-.47a.516.516 0 0 1 0-.726l.684-.684a.514.514 0 0 1 .724 0l1.979 1.98c.199.2.199.526 0 .725l-.684.684c-.199.2-.525.2-.724 0l-.47-.47-.58.58A9.97 9.97 0 0 1 20 13.998a10 10 0 0 1-2.928 7.075A10 10 0 0 1 9.999 24c-2.76 0-5.26-1.12-7.07-2.93A10 10 0 0 1 0 13.994a9.98 9.98 0 0 1 2.732-6.87l-.58-.582-.47.47c-.2.2-.526.2-.725 0L.273 6.33a.515.515 0 0 1 0-.725l1.98-1.98a.51.51 0 0 1 .723 0l.684.684c.199.2.199.526 0 .725l-.47.47.626.627a9.93 9.93 0 0 1 5.221-2.098V2.621h-.875a.676.676 0 0 1-.674-.675V.674c0-.372.304-.674.674-.674h3.681c.372 0 .674.305.674.674v1.272a.676.676 0 0 1-.674.675h-.875v1.413zm4.833 13.31-5.797-3.35V7.296c-3.696 0-6.694 3-6.694 6.698a6.697 6.697 0 0 0 6.694 6.699 6.69 6.69 0 0 0 5.797-3.348m.036-9.186a8.2 8.2 0 0 0-5.833-2.42 8.2 8.2 0 0 0-5.833 2.42 8.22 8.22 0 0 0-2.418 5.836c0 2.28.924 4.344 2.418 5.837a8.2 8.2 0 0 0 5.833 2.42 8.2 8.2 0 0 0 5.833-2.42 8.22 8.22 0 0 0 2.417-5.837c0-2.28-.923-4.344-2.417-5.836"/></svg>