<svg viewBox="0 0 18 20" xmlns="http://www.w3.org/2000/svg"><path d="M16.2 2.593H13V1.481c0-.392-.151-.77-.421-1.047A1.42 1.42 0 0 0 11.56 0H6.45a1.4 1.4 0 0 0-1.026.43A1.52 1.52 0 0 0 5 1.482v1.111H1.8c-.477 0-.935.195-1.272.542A1.88 1.88 0 0 0 0 4.445v.369c0 .295.114.578.316.786.203.209.478.326.765.326H16.92c.286-.001.56-.118.762-.327.202-.208.316-.49.316-.785v-.37c0-.49-.19-.962-.527-1.309a1.77 1.77 0 0 0-1.273-.542zm-9.75-.742c0-.098.039-.192.106-.261a.35.35 0 0 1 .254-.109h4.4c.096 0 .187.04.255.109.067.07.105.163.105.261v.742H6.45z"/><path d="M16.645 6.667H1.355v.043l1.31 11.65c.05.451.26.868.59 1.17.33.303.757.47 1.198.47h9.1c.442 0 .868-.168 1.198-.47.33-.303.54-.719.59-1.17l1.311-11.65v-.043zM5.715 17.023a.7.7 0 0 1-.523-.169.75.75 0 0 1-.257-.5l-.502-5.908a.76.76 0 0 1 .152-.561.73.73 0 0 1 .5-.275.7.7 0 0 1 .537.18.74.74 0 0 1 .246.525l.502 5.905a.76.76 0 0 1-.166.54.72.72 0 0 1-.488.263m4.005-.728a.76.76 0 0 1-.196.552.72.72 0 0 1-.524.232.7.7 0 0 1-.524-.232.75.75 0 0 1-.196-.552V10.37c.01-.19.09-.367.225-.498a.71.71 0 0 1 .99 0 .75.75 0 0 1 .225.498zm3.348.06a.76.76 0 0 1-.246.524.72.72 0 0 1-.538.181.7.7 0 0 1-.5-.275.75.75 0 0 1-.152-.56l.502-5.905a.75.75 0 0 1 .264-.482.71.71 0 0 1 .994.09.76.76 0 0 1 .178.522z"/></svg>