<svg viewBox="0 0 15 15" xmlns="http://www.w3.org/2000/svg"><path d="M2.276 5.225.047 12.823a1.78 1.78 0 0 0 .334 1.508A1.76 1.76 0 0 0 1.76 15h11.49a1.73 1.73 0 0 0 1.372-.67 1.78 1.78 0 0 0 .326-1.533L12.73 5.252a1.77 1.77 0 0 0-.621-.983 1.74 1.74 0 0 0-1.094-.378h-.718a3 3 0 0 0 .171-.973A3 3 0 0 0 9.576.85 2.95 2.95 0 0 0 7.505 0a2.95 2.95 0 0 0-2.071.85 3 3 0 0 0-.893 2.068c.002.332.06.661.172.973h-.734a1.73 1.73 0 0 0-1.08.37 1.76 1.76 0 0 0-.623.964M7.5 1.015c.5 0 .98.201 1.334.558s.553.84.553 1.345a1.9 1.9 0 0 1-.275.972h-3.23a1.9 1.9 0 0 1-.273-.972c0-.505.199-.988.553-1.345a1.88 1.88 0 0 1 1.333-.557z"/></svg>