<svg width="199" height="195" viewBox="0 0 199 195" fill="none" xmlns="http://www.w3.org/2000/svg">
<path opacity="0.07" d="M73.4905 2.22095C74.1615 0.446763 76.1431 -0.447922 77.9173 0.2229L124.364 17.7874C126.138 18.4584 127.032 20.4409 126.361 22.2151L98.0901 96.97L172.33 64.8743C174.071 64.122 176.092 64.9235 176.845 66.6643L196.551 112.243C197.304 113.984 196.502 116.006 194.761 116.759L123.086 147.745L195.826 176.077C197.594 176.766 198.469 178.757 197.781 180.525L179.758 226.794C179.07 228.562 177.079 229.437 175.312 228.748L100.533 199.622L131.323 270.443C132.079 272.182 131.281 274.205 129.541 274.961L84.0032 294.759C82.2636 295.515 80.24 294.718 79.4837 292.979L49.7923 224.684L23.4417 294.365C22.7708 296.139 20.789 297.034 19.0149 296.364L-27.4314 278.799C-29.2056 278.128 -30.1003 276.146 -29.4294 274.371L-1.99387 201.821L-72.3093 232.222C-74.0504 232.975 -76.0721 232.174 -76.8249 230.433L-96.53 184.854C-97.2827 183.113 -96.4811 181.091 -94.74 180.338L-25.6609 150.472L-95.8103 123.15C-97.5777 122.461 -98.4526 120.471 -97.7644 118.703L-79.7429 72.4329C-79.0545 70.6653 -77.0632 69.7903 -75.2956 70.4788L-5.41476 97.6956L-36.5212 26.1438C-37.2775 24.4042 -36.4805 22.3806 -34.7409 21.6243L10.7981 1.82642C12.5376 1.07037 14.5603 1.86736 15.3167 3.60669L46.1468 74.5237L73.4905 2.22095Z" fill="white"/>
</svg>
