<svg width="82" height="83" viewBox="0 0 82 83" fill="none" xmlns="http://www.w3.org/2000/svg">
<path fill-rule="evenodd" clip-rule="evenodd" d="M18.373 5.10808L28.9236 0.440279C29.3899 0.233949 29.9213 0.226171 30.4008 0.418656C30.8802 0.61114 31.2685 0.988121 31.4803 1.46666L39.9733 20.6634L47.1918 1.23203C47.3728 0.750966 47.7347 0.365828 48.1987 0.160548C48.6627 -0.0447321 49.1911 -0.0535135 49.6688 0.136114L60.5182 4.49156C60.7554 4.58547 60.9729 4.72594 61.1581 4.90485C61.3433 5.08376 61.4924 5.29757 61.597 5.53392C61.7016 5.77027 61.7594 6.02447 61.7673 6.28184C61.7751 6.5392 61.7328 6.79462 61.6427 7.03334L54.4243 26.4647L73.1324 18.1878C73.3625 18.0848 73.6112 18.0294 73.8642 18.0249C74.1173 18.0203 74.3697 18.0667 74.6069 18.1613C74.8441 18.256 75.0616 18.397 75.2467 18.5763C75.4318 18.7557 75.581 18.9698 75.6856 19.2064L80.4754 30.0325C80.6871 30.511 80.7049 31.0519 80.5248 31.5362C80.3447 32.0205 79.9816 32.4085 79.5152 32.6148L60.8071 40.8917L80.038 48.6119C80.2753 48.7058 80.4928 48.8463 80.6779 49.0252C80.8631 49.2041 81.0123 49.4179 81.1168 49.6543C81.2214 49.8906 81.2793 50.1448 81.2871 50.4022C81.295 50.6595 81.2526 50.915 81.1626 51.1537L77.0882 62.1117C77.0005 62.3513 76.8665 62.57 76.6942 62.755C76.5219 62.94 76.3145 63.0878 76.0842 63.1897C75.8539 63.2916 75.6051 63.3456 75.3523 63.3487C75.0994 63.3518 74.8475 63.3038 74.6112 63.2076L55.3803 55.4874L63.8733 74.6841C64.0851 75.1627 64.1028 75.7036 63.9228 76.1879C63.7427 76.6722 63.3796 77.0601 62.9132 77.2665L52.3627 81.9343C51.8967 82.1379 51.3669 82.1439 50.8892 81.9509C50.4114 81.7579 50.0247 81.3817 49.8136 80.9045L41.3205 61.7078L34.091 81.1347C34.0032 81.3743 33.8693 81.593 33.6969 81.778C33.5246 81.963 33.3173 82.1107 33.0869 82.2127C32.8566 82.3146 32.6078 82.3686 32.355 82.3717C32.1022 82.3748 31.8503 82.3268 31.6139 82.2306L20.7645 77.8751C20.2882 77.6818 19.9027 77.3061 19.6921 76.83C19.4814 76.3539 19.4627 75.8159 19.64 75.3334L26.8696 55.9064L8.16145 64.1833C7.93053 64.2855 7.68123 64.34 7.42777 64.3437C7.17431 64.3474 6.92166 64.3003 6.68425 64.205C6.44684 64.1096 6.22931 63.968 6.04409 63.7882C5.85887 63.6084 5.70958 63.3939 5.60474 63.1569L0.815026 52.3308C0.605931 51.8528 0.589929 51.3135 0.77052 50.831C0.951112 50.3485 1.31359 49.9621 1.77863 49.7564L20.4867 41.4795L1.24471 33.7548C0.768373 33.5614 0.382882 33.1857 0.17224 32.7096C-0.0384014 32.2335 -0.0571191 31.6956 0.120167 31.213L4.19449 20.255C4.37549 19.7739 4.73742 19.3888 5.20141 19.1835C5.6654 18.9782 6.19384 18.9695 6.67157 19.1591L25.9136 26.8838L17.4205 7.68701C17.3148 7.45088 17.2557 7.19672 17.2464 6.93912C17.2371 6.68153 17.2778 6.42557 17.3663 6.18595C17.4548 5.94632 17.5893 5.72775 17.7621 5.54278C17.9348 5.35781 18.1425 5.21008 18.373 5.10808Z" fill="#BAD76A"/>
</svg>
