<svg width="155" height="29" viewBox="0 0 155 29" fill="none" xmlns="http://www.w3.org/2000/svg">
<g clip-path="url(#clip0_2008_21)">
<path d="M235 9C251.569 9 265 22.4315 265 39V931C265 947.569 251.569 961 235 961H-80C-96.5685 961 -110 947.569 -110 931V39C-110 22.4315 -96.5685 9 -80 9H19.7239C30.6848 9 40.8808 15.4698 50.2584 21.1445C56.5336 24.9419 65.41 28.2261 77.5 28.5C89.5029 28.772 98.3383 25.6372 104.606 21.8056C114.22 15.9281 124.591 9 135.859 9H235Z" fill="white"/>
<rect x="55" width="46" height="4" rx="2" fill="white"/>
</g>
<defs>
<clipPath id="clip0_2008_21">
<rect width="155" height="29" fill="white"/>
</clipPath>
</defs>
</svg>
