<svg width="135" height="137" viewBox="0 0 135 137" fill="none" xmlns="http://www.w3.org/2000/svg">
<path fill-rule="evenodd" clip-rule="evenodd" d="M30.4371 8.46199L47.915 0.729373C48.6875 0.38757 49.5678 0.374685 50.3621 0.693553C51.1564 1.01242 51.7996 1.63692 52.1504 2.42967L66.2199 34.2308L78.1779 2.04098C78.4777 1.24405 79.0773 0.606039 79.8459 0.265975C80.6146 -0.0740888 81.49 -0.0886358 82.2814 0.225499L100.254 7.44068C100.647 7.59624 101.008 7.82894 101.314 8.12533C101.621 8.42171 101.868 8.77591 102.041 9.16744C102.215 9.55898 102.31 9.98008 102.323 10.4064C102.337 10.8328 102.266 11.2559 102.117 11.6514L90.1592 43.8411L121.151 30.1298C121.532 29.9591 121.944 29.8673 122.363 29.8598C122.782 29.8522 123.2 29.9291 123.593 30.0859C123.986 30.2426 124.347 30.4763 124.653 30.7734C124.96 31.0704 125.207 31.4251 125.38 31.8171L133.315 49.7515C133.666 50.5442 133.695 51.4403 133.397 52.2425C133.099 53.0448 132.497 53.6875 131.724 54.0293L100.733 67.7407L132.591 80.5299C132.984 80.6854 133.344 80.9181 133.651 81.2145C133.957 81.5109 134.204 81.8651 134.378 82.2567C134.551 82.6482 134.647 83.0693 134.66 83.4956C134.673 83.922 134.603 84.3451 134.453 84.7406L127.704 102.893C127.559 103.29 127.337 103.653 127.051 103.959C126.766 104.266 126.422 104.51 126.041 104.679C125.659 104.848 125.247 104.938 124.828 104.943C124.409 104.948 123.992 104.868 123.6 104.709L91.7428 91.9198L105.812 123.721C106.163 124.514 106.193 125.41 105.894 126.212C105.596 127.014 104.994 127.657 104.222 127.999L86.7439 135.731C85.972 136.069 85.0943 136.079 84.3029 135.759C83.5115 135.439 82.8709 134.816 82.5211 134.025L68.4516 102.224L56.4752 134.407C56.3298 134.804 56.108 135.166 55.8225 135.472C55.537 135.779 55.1935 136.024 54.812 136.192C54.4304 136.361 54.0183 136.451 53.5994 136.456C53.1806 136.461 52.7633 136.382 52.3717 136.222L34.3989 129.007C33.6098 128.687 32.9712 128.064 32.6222 127.276C32.2733 126.487 32.2423 125.596 32.536 124.796L44.5123 92.6139L13.5207 106.325C13.1382 106.495 12.7252 106.585 12.3053 106.591C11.8854 106.597 11.4669 106.519 11.0736 106.361C10.6803 106.203 10.32 105.969 10.0131 105.671C9.70629 105.373 9.45898 105.018 9.28532 104.625L1.35073 86.6906C1.00434 85.8986 0.977834 85.0053 1.277 84.206C1.57617 83.4067 2.17664 82.7666 2.94703 82.4258L33.9386 68.7144L2.06253 55.9178C1.27344 55.5974 0.634842 54.9751 0.285895 54.1864C-0.0630512 53.3977 -0.0940587 52.5065 0.199631 51.7071L6.9491 33.5542C7.24894 32.7573 7.84851 32.1193 8.61716 31.7792C9.3858 31.4391 10.2612 31.4246 11.0526 31.7387L42.9287 44.5353L28.8592 12.7342C28.6841 12.343 28.5861 11.922 28.5707 11.4953C28.5553 11.0685 28.6228 10.6445 28.7694 10.2476C28.916 9.85062 29.1388 9.48853 29.425 9.18211C29.7112 8.87569 30.0551 8.63097 30.4371 8.46199Z" fill="white" fill-opacity="0.2"/>
</svg>
