<svg width="135" height="73" viewBox="0 0 135 73" fill="none" xmlns="http://www.w3.org/2000/svg">
<path fill-rule="evenodd" clip-rule="evenodd" d="M30.4371 8.46211L47.915 0.729494C48.6875 0.387692 49.5678 0.374807 50.3621 0.693675C51.1564 1.01254 51.7996 1.63704 52.1504 2.42979L66.2199 34.2309L78.1778 2.04111C78.4777 1.24418 79.0773 0.606161 79.8459 0.266096C80.6145 -0.073965 81.49 -0.0885153 82.2814 0.225622L100.254 7.4408C100.647 7.59636 101.008 7.82906 101.314 8.12545C101.621 8.42184 101.868 8.77603 102.041 9.16756C102.215 9.5591 102.31 9.98021 102.323 10.4066C102.337 10.8329 102.266 11.256 102.117 11.6515L90.1592 43.8413L121.151 30.1299C121.532 29.9592 121.944 29.8674 122.363 29.8599C122.782 29.8524 123.2 29.9292 123.593 30.086C123.986 30.2427 124.347 30.4764 124.653 30.7735C124.96 31.0706 125.207 31.4253 125.38 31.8172L133.315 49.7516C133.666 50.5443 133.695 51.4404 133.397 52.2426C133.099 53.0449 132.497 53.6876 131.724 54.0294L100.733 67.7408L132.591 80.53C132.984 80.6856 133.344 80.9183 133.651 81.2147C133.957 81.511 134.204 81.8652 134.378 82.2568C134.551 82.6483 134.647 83.0694 134.66 83.4958C134.673 83.9221 134.603 84.3452 134.453 84.7407L127.704 102.894C127.559 103.291 127.337 103.653 127.051 103.959C126.766 104.266 126.422 104.511 126.041 104.679C125.659 104.848 125.247 104.938 124.828 104.943C124.409 104.948 123.992 104.868 123.6 104.709L91.7428 91.9199L105.812 123.721C106.163 124.514 106.193 125.41 105.894 126.212C105.596 127.014 104.994 127.657 104.222 127.999L86.7439 135.731C85.972 136.069 85.0943 136.079 84.3029 135.759C83.5115 135.439 82.8709 134.816 82.5211 134.026L68.4516 102.224L56.4752 134.407C56.3298 134.804 56.108 135.166 55.8225 135.473C55.537 135.779 55.1935 136.024 54.812 136.193C54.4304 136.361 54.0183 136.451 53.5994 136.456C53.1806 136.461 52.7633 136.382 52.3717 136.222L34.3989 129.007C33.6098 128.687 32.9712 128.064 32.6222 127.276C32.2733 126.487 32.2423 125.596 32.536 124.796L44.5123 92.6141L13.5207 106.325C13.1382 106.495 12.7252 106.585 12.3053 106.591C11.8854 106.597 11.4669 106.519 11.0736 106.361C10.6803 106.203 10.32 105.969 10.0131 105.671C9.70629 105.373 9.45898 105.018 9.28532 104.625L1.35073 86.6907C1.00434 85.8988 0.977835 85.0054 1.277 84.2061C1.57617 83.4068 2.17664 82.7667 2.94703 82.4259L33.9386 68.7145L2.06253 55.9179C1.27344 55.5976 0.634841 54.9752 0.285895 54.1865C-0.0630511 53.3978 -0.0940588 52.5066 0.19963 51.7072L6.9491 33.5543C7.24894 32.7574 7.84851 32.1194 8.61716 31.7793C9.3858 31.4393 10.2612 31.4247 11.0526 31.7388L42.9287 44.5354L28.8592 12.7343C28.6841 12.3432 28.5861 11.9221 28.5707 11.4954C28.5553 11.0687 28.6228 10.6447 28.7694 10.2477C28.916 9.85074 29.1388 9.48865 29.425 9.18223C29.7112 8.87581 30.0551 8.63109 30.4371 8.46211Z" fill="white" fill-opacity="0.2"/>
</svg>
