<svg width="27" height="27" viewBox="0 0 27 27" fill="none" xmlns="http://www.w3.org/2000/svg">
<path d="M6.76539 9.75537C7.62473 10.5717 8.45734 11.2553 9.15363 12.0569C9.89937 12.9162 9.80715 14.1749 8.99994 14.9926C7.3071 16.7057 5.59199 18.3978 3.85461 20.0689C2.88435 21.0005 1.50246 20.9482 0.621738 20.0233C-0.258982 19.0984 -0.197507 17.7445 0.764737 16.7848C2.21478 15.3317 3.66483 13.88 5.13225 12.4443C5.90339 11.6856 6.68654 10.9537 6.76539 9.75537Z" fill="#6F9AFA"/>
<path d="M16.9948 6.78912C16.2932 7.54514 15.6423 8.34405 14.8886 9.03037C14.4658 9.40855 13.9151 9.61068 13.3489 9.59548C12.7826 9.58028 12.2434 9.34892 11.8415 8.9486C10.1005 7.25604 8.38095 5.54159 6.68277 3.80524C6.27887 3.39533 6.05114 2.84303 6.0484 2.26672C6.04565 1.69041 6.2681 1.13595 6.66807 0.722178C7.58087 -0.201401 8.94003 -0.259041 9.90629 0.664539C11.359 2.04522 12.7703 3.47013 14.1923 4.88298C15.5047 6.18457 15.502 6.18859 16.9948 6.78912Z" fill="#6F9AFA"/>
<path d="M9.89267 19.9434C10.621 19.1753 11.2959 18.367 12.0724 17.674C12.4822 17.3155 13.0105 17.1231 13.5541 17.1342C14.0978 17.1454 14.6178 17.3593 15.0126 17.7343C16.8141 19.4595 18.5903 21.2195 20.3196 23.0157C21.1776 23.9085 21.056 25.2637 20.1793 26.0867C19.2438 26.9701 17.886 26.9473 16.9358 26.013C15.4746 24.5769 14.0183 23.1346 12.5669 21.686C11.34 20.4688 11.3414 20.4675 9.89267 19.9434Z" fill="#6F9AFA"/>
<path d="M20.1208 17.1643C19.1973 16.1844 18.3473 15.3949 17.6403 14.4927C17.0242 13.7072 17.1792 12.4995 17.8969 11.7756C19.6263 10.033 21.3717 8.30514 23.1358 6.60677C24.0325 5.7462 25.4077 5.81992 26.2751 6.68988C26.4815 6.89513 26.6453 7.13933 26.757 7.4084C26.8688 7.67746 26.9264 7.96607 26.9264 8.25756C26.9264 8.54905 26.8688 8.83765 26.757 9.10672C26.6453 9.37578 26.4815 9.61998 26.2751 9.82523C24.924 11.218 23.53 12.5692 22.1575 13.9404C21.2835 14.8171 20.2571 15.5892 20.1208 17.1643Z" fill="#6F9AFA"/>
<path d="M12.7397 23.171C11.7587 24.1964 10.8473 25.2353 9.84228 26.1723C8.94418 27.0087 7.54225 26.872 6.71231 25.986C5.90242 25.12 5.91044 23.8077 6.76042 22.9029C7.16938 22.4632 7.59704 22.0396 8.03807 21.6321C8.97359 20.7635 10.31 20.7555 11.2322 21.6254C11.7681 22.1281 12.2613 22.6723 12.7397 23.171Z" fill="#6F9AFA"/>
<path d="M23.2975 13.8481C24.4629 15.0264 25.4973 16.0049 26.4489 17.0586C27.1492 17.8347 27.0543 19.0974 26.3527 19.8829C25.631 20.6872 24.3587 20.9553 23.5114 20.3132C22.7671 19.7526 22.099 19.0969 21.5241 18.3628C20.8839 17.5425 21.0483 16.399 21.7566 15.5921C22.2377 15.0398 22.7269 14.4916 23.2975 13.8481Z" fill="#6F9AFA"/>
<path d="M3.45776 12.8143C2.45543 11.7741 1.49719 10.813 0.57905 9.81434C0.216612 9.41236 0.0140511 8.89082 0.00986242 8.34886C0.00567373 7.80689 0.20015 7.28227 0.556331 6.8747C1.33281 5.99536 2.65857 5.78625 3.56735 6.50474C4.22746 7.03345 4.82918 7.63158 5.3622 8.28889C5.98766 9.0543 5.93019 10.1789 5.31543 10.9618C5.0728 11.2523 4.81259 11.5276 4.53628 11.7862C4.22355 12.0985 3.89746 12.3974 3.45776 12.8143Z" fill="#6F9AFA"/>
<path d="M14.175 3.58927C15.1746 2.54103 16.0888 1.49949 17.0951 0.5558C17.9718 -0.267245 19.3363 -0.141242 20.1689 0.726038C20.5642 1.12976 20.7906 1.66978 20.8017 2.23548C20.8129 2.80119 20.6081 3.34977 20.2291 3.76889C19.7706 4.28321 19.2776 4.76555 18.7536 5.21257C18.3433 5.56711 17.8191 5.76122 17.2775 5.75925C16.7359 5.75728 16.2132 5.55936 15.8054 5.20185C15.212 4.69381 14.6922 4.10669 14.175 3.58927Z" fill="#6F9AFA"/>
</svg>
